<?xml version="1.0" encoding="UTF-8"?>
<svg width="27px" height="48px" viewBox="0 0 27 48" version="1.1" xmlns="http://www.w3.org/2000/svg" xmlns:xlink="http://www.w3.org/1999/xlink">
    <title>导航栏-收起</title>
    <g id="页面" stroke="none" stroke-width="1" fill="none" fill-rule="evenodd">
        <g id="首页" transform="translate(-193.000000, -48.000000)">
            <g id="导航栏-收起" transform="translate(193.000000, 48.000000)">
                <path d="M15,46.2643011 C15,54.280647 15,32.3884878 15,24.1871275 C15,21.0636834 15,-6.56318607 15,1.45274507 C15,9.4686762 0,10.8567997 0,24.1871275 C0,37.5174553 15,38.2479552 15,46.2643011 Z" id="椭圆形" fill="#F1F4F6"></path>
                <g id="收起" transform="translate(3.000000, 12.000000)">
                    <circle id="椭圆形" fill="#487BFF" cx="12" cy="12" r="12"></circle>
                    <path d="M16.7282235,9.27183454 C16.3658548,8.90938849 15.7783599,8.90938849 15.4159912,9.27183454 L12,12.7582736 L8.58400876,9.27183454 C8.22164006,8.90938849 7.63414522,8.90938849 7.27177652,9.27183454 C6.90940783,9.63428059 6.90940783,10.2219008 7.27177652,10.5843469 L11.3205857,14.703739 C11.3281179,14.7118125 11.3348516,14.720361 11.3427076,14.7282187 C11.5241941,14.9097439 11.7621402,15.0003015 12,15 C12.2378598,15.0003015 12.4758059,14.9097439 12.6572924,14.7282187 C12.6651484,14.720361 12.6718821,14.7118341 12.6793928,14.7037606 L16.7282235,10.5843469 C17.0905922,10.2219008 17.0905922,9.63425901 16.7282235,9.27183454 Z" id="路径" fill="#FFFFFF" fill-rule="nonzero" transform="translate(12.000000, 12.000000) rotate(90.000000) translate(-12.000000, -12.000000) "></path>
                </g>
            </g>
        </g>
    </g>
</svg>