<?xml version="1.0" encoding="UTF-8"?>
<svg width="27px" height="48px" viewBox="0 0 27 48" version="1.1" xmlns="http://www.w3.org/2000/svg" xmlns:xlink="http://www.w3.org/1999/xlink">
    <title>导航栏-展开</title>
    <g id="页面" stroke="none" stroke-width="1" fill="none" fill-rule="evenodd">
        <g id="首页2" transform="translate(-47.000000, -48.000000)">
            <g id="导航栏-展开" transform="translate(47.000000, 48.000000)">
                <path d="M15,46.2643011 C15,54.280647 15,32.3884878 15,24.1871275 C15,21.0636834 15,-6.56318607 15,1.45274507 C15,9.4686762 0,10.8567997 0,24.1871275 C0,37.5174553 15,38.2479552 15,46.2643011 Z" id="椭圆形" fill="#F1F4F6"></path>
                <g id="收起" transform="translate(3.000000, 12.000000)">
                    <circle id="椭圆形" fill="#487BFF" cx="12" cy="12" r="12"></circle>
                    <path d="M16.1666667,15.3333333 C16.626904,15.3333333 17,15.7064294 17,16.1666667 C17,16.626904 16.626904,17 16.1666667,17 L7.83333333,17 C7.37309604,17 7,16.626904 7,16.1666667 C7,15.7064294 7.37309604,15.3333333 7.83333333,15.3333333 L16.1666667,15.3333333 Z M16.1666667,11.1666667 C16.626904,11.1666667 17,11.5397627 17,12 C17,12.4602373 16.626904,12.8333333 16.1666667,12.8333333 L7.83333333,12.8333333 C7.37309604,12.8333333 7,12.4602373 7,12 C7,11.5397627 7.37309604,11.1666667 7.83333333,11.1666667 L16.1666667,11.1666667 Z M16.1666667,7 C16.626904,7 17,7.37309604 17,7.83333333 C17,8.29357062 16.626904,8.66666667 16.1666667,8.66666667 L7.83333333,8.66666667 C7.37309604,8.66666667 7,8.29357062 7,7.83333333 C7,7.37309604 7.37309604,7 7.83333333,7 L16.1666667,7 Z" id="展开" fill="#FFFFFF"></path>
                </g>
            </g>
        </g>
    </g>
</svg>